<svg width="1214" height="1193" viewBox="0 0 1214 1193" fill="none" xmlns="http://www.w3.org/2000/svg">
<path d="M571.479 348.716C571.479 343.734 570.001 338.864 567.232 334.722C564.463 330.58 560.528 327.351 555.924 325.445C551.32 323.538 546.253 323.039 541.366 324.011C536.478 324.983 531.988 327.382 528.464 330.905C524.94 334.428 522.54 338.916 521.568 343.802C520.596 348.688 521.095 353.753 523.002 358.355C524.909 362.958 528.139 366.892 532.282 369.66C536.426 372.428 541.298 373.905 546.281 373.905C549.628 374.045 552.967 373.49 556.087 372.273C559.208 371.057 562.042 369.207 564.41 366.839C566.779 364.472 568.63 361.638 569.847 358.519C571.063 355.399 571.619 352.061 571.479 348.716ZM470.65 411.706C476.026 410.251 480.693 406.897 483.784 402.265C486.875 397.633 488.182 392.038 487.461 386.517V378.131C486.006 372.756 482.651 368.092 478.017 365.001C473.384 361.911 467.787 360.605 462.264 361.325H453.875C448.498 362.78 443.832 366.134 440.741 370.766C437.65 375.398 436.343 380.993 437.063 386.514V394.9C438.519 400.275 441.874 404.939 446.508 408.03C451.141 411.12 456.738 412.426 462.261 411.706H470.65ZM369.822 449.507C369.822 453.7 374.016 462.119 374.016 466.312C379.764 471.57 387.233 474.551 395.022 474.699C400.945 475.326 406.899 473.841 411.834 470.506C420.223 466.312 420.223 457.893 420.223 449.51C420.85 443.589 419.365 437.637 416.028 432.705C414.471 429.389 412.124 426.505 409.193 424.306C406.263 422.107 402.837 420.661 399.217 420.092C393.294 419.465 387.34 420.95 382.406 424.286C378.742 427.438 375.744 431.289 373.589 435.615C371.433 439.94 370.164 444.652 369.854 449.474L369.822 449.507ZM668.077 877.804C671.423 877.944 674.762 877.388 677.883 876.172C681.003 874.956 683.838 873.106 686.206 870.738C688.574 868.37 690.425 865.537 691.642 862.418C692.859 859.298 693.414 855.96 693.274 852.615C692.832 846.08 690.035 839.927 685.402 835.296C680.769 830.664 674.614 827.868 668.077 827.426C664.73 827.286 661.391 827.842 658.271 829.058C655.15 830.274 652.316 832.124 649.948 834.492C647.579 836.86 645.728 839.693 644.511 842.812C643.295 845.932 642.739 849.27 642.879 852.615C643.322 859.15 646.118 865.303 650.751 869.934C655.384 874.566 661.54 877.361 668.077 877.804ZM777.291 802.234C775.836 796.86 772.48 792.195 767.847 789.105C763.214 786.015 757.617 784.709 752.094 785.429H743.705C738.328 786.884 733.662 790.238 730.571 794.87C727.48 799.501 726.173 805.096 726.893 810.617V819.004C728.349 824.378 731.704 829.043 736.337 832.133C740.971 835.223 746.568 836.529 752.091 835.809H760.48C765.856 834.354 770.523 831 773.614 826.368C776.705 821.737 778.012 816.142 777.291 810.621V802.234ZM815.105 777.045C821.028 777.672 826.982 776.187 831.916 772.852C840.306 768.659 840.306 760.24 840.306 751.857C840.933 745.936 839.447 739.983 836.111 735.051C831.916 726.665 823.495 726.665 815.109 726.665C809.185 726.038 803.231 727.523 798.297 730.858C789.908 735.051 789.908 743.47 789.908 751.853C790.96 758.168 793.883 764.022 798.297 768.659C800.302 771.214 802.851 773.289 805.759 774.734C808.667 776.179 811.861 776.958 815.109 777.013L815.105 777.045ZM882.35 667.881C882.032 663.054 880.753 658.339 878.586 654.013C876.419 649.688 873.41 645.839 869.734 642.692C868.076 641.097 866.083 639.893 863.9 639.168C861.717 638.442 859.4 638.214 857.117 638.499C852.288 638.817 847.572 640.096 843.245 642.262C838.917 644.428 835.067 647.437 831.92 651.111C830.325 652.768 829.12 654.761 828.394 656.943C827.669 659.125 827.44 661.442 827.725 663.724C828.043 668.551 829.323 673.266 831.489 677.591C833.656 681.917 836.666 685.766 840.342 688.912C841.999 690.507 843.992 691.711 846.175 692.437C848.358 693.163 850.676 693.391 852.958 693.106C857.787 692.788 862.504 691.509 866.831 689.343C871.158 687.177 875.008 684.168 878.156 680.493C879.751 678.836 880.955 676.844 881.681 674.662C882.407 672.48 882.635 670.163 882.35 667.881ZM890.74 583.892V579.54C891.206 573.434 889.273 567.387 885.35 562.684C881.428 557.981 875.826 554.991 869.734 554.351H865.539C859.432 553.885 853.383 555.817 848.678 559.737C843.973 563.658 840.983 569.257 840.342 575.347V579.54C839.875 585.645 841.808 591.691 845.73 596.395C849.651 601.098 855.253 604.088 861.344 604.729H865.539C871.459 604.547 877.15 602.396 881.708 598.615C886.267 594.835 889.434 589.643 890.707 583.86L890.74 583.892ZM840.342 466.329H836.147C830.334 467.578 825.107 470.737 821.301 475.303C817.494 479.868 815.326 485.577 815.144 491.517V495.711C816.394 501.522 819.554 506.747 824.121 510.552C828.688 514.358 834.399 516.524 840.342 516.706H844.536C850.349 515.457 855.576 512.298 859.383 507.732C863.189 503.167 865.357 497.458 865.539 491.517V487.324C864.906 481.223 861.914 475.61 857.201 471.682C852.488 467.754 846.427 465.821 840.309 466.296L840.342 466.329ZM789.944 445.333C792.226 445.618 794.544 445.39 796.727 444.664C798.91 443.939 800.903 442.735 802.56 441.14C806.917 438.657 810.441 434.939 812.686 430.457C814.932 425.974 815.798 420.926 815.177 415.951C815.462 413.669 815.234 411.352 814.508 409.17C813.782 406.988 812.578 404.996 810.982 403.339C808.498 398.983 804.78 395.461 800.295 393.216C795.811 390.972 790.761 390.105 785.785 390.727C783.502 390.442 781.185 390.67 779.002 391.396C776.819 392.121 774.826 393.325 773.168 394.92C768.811 397.403 765.288 401.12 763.042 405.603C760.797 410.086 759.93 415.134 760.552 420.109C760.27 422.389 760.502 424.703 761.23 426.882C761.958 429.062 763.164 431.051 764.759 432.705C767.906 436.37 771.753 439.371 776.075 441.531C780.397 443.691 785.106 444.967 789.927 445.284L789.944 445.333ZM743.734 365.538C743.585 357.752 740.603 350.288 735.345 344.542C730.41 341.207 724.456 339.722 718.533 340.349C710.744 340.497 703.275 343.478 697.527 348.736C694.191 353.668 692.705 359.62 693.333 365.541C693.481 373.327 696.464 380.791 701.722 386.537C706.662 389.871 712.623 391.352 718.55 390.717C726.338 390.568 733.805 387.587 739.552 382.33C743.714 378.101 743.714 373.911 743.714 365.525L743.734 365.538ZM622.062 365.538H630.451C635.811 365.403 641.022 363.753 645.482 360.779C649.942 357.804 653.467 353.628 655.649 348.732V340.346C655.514 334.988 653.863 329.779 650.888 325.321C647.913 320.863 643.734 317.339 638.838 315.157H630.458C625.099 315.292 619.887 316.942 615.428 319.916C610.968 322.891 607.443 327.067 605.261 331.963V340.349C605.395 345.707 607.046 350.916 610.022 355.374C612.997 359.832 617.175 363.356 622.072 365.538H622.062ZM437.06 281.533C437.06 288.18 439.032 294.678 442.726 300.205C446.42 305.731 451.671 310.039 457.814 312.583C463.957 315.126 470.717 315.792 477.238 314.495C483.76 313.198 489.75 309.997 494.452 305.297C499.154 300.597 502.356 294.609 503.653 288.09C504.95 281.57 504.284 274.813 501.74 268.672C499.195 262.531 494.886 257.282 489.357 253.589C483.829 249.896 477.329 247.925 470.679 247.925C461.958 248.517 453.746 252.247 447.565 258.426C441.384 264.605 437.652 272.814 437.06 281.533ZM348.855 239.539C348.853 246.186 350.823 252.685 354.516 258.213C358.209 263.741 363.459 268.05 369.602 270.595C375.745 273.14 382.505 273.807 389.027 272.512C395.549 271.216 401.54 268.016 406.243 263.316C410.946 258.617 414.149 252.628 415.447 246.109C416.745 239.589 416.079 232.831 413.535 226.69C410.991 220.548 406.682 215.299 401.153 211.605C395.624 207.912 389.124 205.941 382.474 205.941C377.955 205.525 373.4 206.108 369.132 207.65C364.864 209.192 360.988 211.654 357.779 214.862C354.57 218.07 352.107 221.945 350.565 226.211C349.023 230.478 348.439 235.031 348.855 239.549V239.539ZM369.857 315.108H357.241C350.597 317.716 344.968 322.392 341.185 328.444C337.403 334.496 335.669 341.603 336.238 348.716V361.328C344.949 370.935 356.943 376.931 369.857 378.134H382.474C388.56 375.969 393.835 371.993 397.591 366.739C401.347 361.486 403.402 355.208 403.48 348.752V336.27L395.091 340.463L399.285 336.27C397.142 330.154 393.17 324.845 387.906 321.062C382.643 317.28 376.343 315.207 369.861 315.125L369.857 315.108ZM273.224 369.715H285.84C295.454 361.009 301.455 349.018 302.661 336.107V323.462C300.495 317.379 296.517 312.106 291.262 308.352C286.007 304.598 279.728 302.544 273.269 302.467H260.643C254.694 305.962 249.677 310.842 246.02 316.691C242.362 322.541 240.173 329.187 239.637 336.065V348.677C242.246 355.319 246.923 360.946 252.977 364.727C259.031 368.508 266.141 370.242 273.256 369.673L273.224 369.715ZM298.431 411.709C290.642 411.858 283.175 414.839 277.428 420.096C273.419 422.936 270.17 426.72 267.97 431.113C265.77 435.506 264.685 440.373 264.812 445.284C264.96 453.07 267.943 460.535 273.201 466.28C276.348 469.955 280.199 472.963 284.526 475.129C288.853 477.295 293.569 478.574 298.398 478.892C306.187 478.744 313.654 475.762 319.401 470.506C323.077 467.359 326.087 463.51 328.253 459.185C330.42 454.859 331.7 450.144 332.018 445.317C332.018 436.93 327.823 432.705 323.628 424.318C320.484 420.647 316.638 417.64 312.317 415.474C307.995 413.309 303.284 412.027 298.46 411.706L298.431 411.709ZM180.827 441.091C177.151 444.237 174.141 448.086 171.974 452.412C169.808 456.738 168.528 461.453 168.21 466.28C168.359 474.066 171.341 481.53 176.6 487.275C179.745 490.949 183.592 493.957 187.917 496.123C192.241 498.29 196.954 499.571 201.781 499.891C210.17 499.891 214.397 495.698 222.787 491.504C226.463 488.358 229.472 484.509 231.639 480.183C233.806 475.858 235.085 471.143 235.403 466.316C235.255 458.53 232.272 451.065 227.014 445.32C223.866 441.645 220.016 438.637 215.689 436.471C211.362 434.305 206.645 433.026 201.816 432.708C193.434 436.911 189.112 436.911 180.82 441.091H180.827ZM773.093 915.608C772.502 906.889 768.77 898.68 762.589 892.501C756.407 886.322 748.196 882.591 739.474 882C731.36 882.335 723.604 885.431 717.49 890.774C711.376 896.118 707.271 903.388 705.855 911.382C705.79 915.814 706.616 920.213 708.283 924.319C709.949 928.426 712.423 932.156 715.558 935.29C718.693 938.424 722.425 940.897 726.533 942.563C730.641 944.229 735.041 945.054 739.474 944.99C743.712 945.879 748.098 945.771 752.287 944.676C756.476 943.581 760.353 941.528 763.613 938.679C766.872 935.83 769.425 932.263 771.071 928.26C772.716 924.256 773.408 919.925 773.093 915.608ZM865.513 957.602C865.513 950.955 863.541 944.458 859.847 938.931C856.153 933.404 850.902 929.096 844.759 926.553C838.616 924.009 831.856 923.344 825.335 924.64C818.813 925.937 812.823 929.138 808.121 933.838C803.42 938.538 800.218 944.526 798.92 951.046C797.623 957.565 798.289 964.322 800.834 970.463C803.378 976.604 807.687 981.853 813.216 985.546C818.745 989.239 825.244 991.21 831.894 991.21C836.329 991.275 840.733 990.448 844.843 988.78C848.953 987.112 852.686 984.636 855.822 981.499C858.957 978.362 861.43 974.627 863.095 970.517C864.759 966.406 865.582 962.004 865.513 957.57V957.602ZM844.51 882.033H857.127C863.212 879.868 868.487 875.891 872.242 870.637C875.997 865.384 878.052 859.107 878.13 852.651V840.035C875.964 833.952 871.985 828.679 866.73 824.925C861.475 821.171 855.196 819.117 848.737 819.04H836.121C830.036 821.205 824.761 825.182 821.006 830.435C817.251 835.688 815.196 841.966 815.118 848.422V861.034C816.752 867.435 820.6 873.052 825.979 876.889C831.359 880.727 837.923 882.537 844.51 882V882.033ZM941.111 827.459H928.495C922.41 829.624 917.135 833.601 913.38 838.854C909.625 844.107 907.57 850.385 907.492 856.841V869.453C909.658 875.536 913.636 880.809 918.891 884.563C924.146 888.317 930.426 890.371 936.884 890.449H949.501C955.586 888.284 960.861 884.307 964.616 879.053C968.371 873.8 970.426 867.523 970.504 861.067V848.379C968.34 842.301 964.366 837.031 959.116 833.278C953.867 829.524 947.594 827.467 941.141 827.384L941.111 827.459ZM915.943 785.432C923.732 785.283 931.199 782.302 936.946 777.045C940.622 773.899 943.632 770.05 945.798 765.724C947.965 761.399 949.245 756.684 949.563 751.857C949.415 744.07 946.432 736.604 941.173 730.858C938.026 727.183 934.176 724.174 929.848 722.009C925.521 719.843 920.805 718.563 915.976 718.246C908.187 718.393 900.718 721.375 894.97 726.632C887.336 734.57 882.852 745.014 882.353 756.014C882.501 763.801 885.484 771.267 890.743 777.013L894.928 772.82L890.733 777.013C894.928 785.399 907.544 785.399 915.93 785.399L915.943 785.432ZM1012.54 764.433C1020.34 764.285 1027.81 761.301 1033.56 756.04C1037.23 752.894 1040.24 749.045 1042.41 744.719C1044.58 740.393 1045.86 735.679 1046.17 730.851C1046.03 723.065 1043.04 715.599 1037.78 709.853C1034.64 706.178 1030.79 703.169 1026.46 701.003C1022.13 698.837 1017.42 697.558 1012.59 697.24C1004.8 697.388 997.329 700.37 991.581 705.627C987.905 708.773 984.895 712.622 982.729 716.948C980.562 721.273 979.282 725.988 978.965 730.816C979.111 738.6 982.091 746.065 987.347 751.811C989.831 756.167 993.55 759.689 998.034 761.934C1002.52 764.178 1007.57 765.045 1012.54 764.423V764.433ZM966.335 613.261C961.401 609.926 955.447 608.441 949.524 609.068C943.536 608.805 937.597 610.245 932.395 613.219C927.193 616.194 922.941 620.582 920.132 625.874C916.795 630.806 915.31 636.758 915.937 642.679C915.674 648.665 917.114 654.602 920.089 659.802C923.065 665.003 927.454 669.253 932.748 672.061C937.682 675.396 943.636 676.882 949.559 676.255C955.547 676.517 961.486 675.078 966.688 672.104C971.89 669.129 976.143 664.741 978.952 659.449C982.288 654.517 983.774 648.565 983.146 642.644C983.039 636.729 981.443 630.936 978.504 625.8C975.566 620.665 971.381 616.353 966.335 613.261ZM1046.16 554.462C1041.22 551.127 1035.27 549.641 1029.35 550.268C1023.36 550.006 1017.42 551.445 1012.22 554.42C1007.02 557.394 1002.76 561.782 999.954 567.074C996.618 572.006 995.132 577.958 995.759 583.879C995.497 589.865 996.936 595.802 999.912 601.002C1002.89 606.203 1007.28 610.453 1012.57 613.261C1017.5 616.597 1023.46 618.082 1029.38 617.455C1035.37 617.717 1041.31 616.278 1046.51 613.304C1051.71 610.329 1055.97 605.941 1058.77 600.649C1062.11 595.717 1063.6 589.765 1062.97 583.844C1063.23 577.855 1061.78 571.916 1058.8 566.715C1055.82 561.515 1051.43 557.266 1046.13 554.462H1046.16ZM941.138 487.246C933.624 487.485 926.367 490.031 920.352 494.537C914.337 499.044 909.856 505.293 907.518 512.435V516.628C907.757 524.139 910.304 531.394 914.812 537.407C919.32 543.42 925.571 547.899 932.716 550.236H936.907C944.385 549.969 951.602 547.418 957.584 542.925C963.567 538.432 968.028 532.214 970.367 525.109V520.916C970.128 513.405 967.581 506.15 963.073 500.137C958.565 494.124 952.314 489.645 945.17 487.308L941.138 487.246ZM995.73 470.441H999.925C1007.44 470.202 1014.7 467.656 1020.71 463.149C1026.73 458.643 1031.21 452.394 1033.54 445.252V441.059C1033.31 433.548 1030.76 426.293 1026.25 420.28C1021.74 414.267 1015.49 409.788 1008.35 407.451H1004.15C996.639 407.69 989.382 410.235 983.366 414.742C977.351 419.249 972.871 425.498 970.533 432.64V436.833C970.373 453.7 978.922 470.473 995.73 470.473V470.441ZM865.51 411.641V415.834C867.134 423.379 871.431 430.083 877.609 434.712C883.786 439.34 891.429 441.581 899.129 441.023H903.324C910.871 439.399 917.577 435.104 922.208 428.928C926.838 422.752 929.08 415.112 928.521 407.415V403.222C926.183 396.08 921.702 389.831 915.687 385.324C909.672 380.818 902.415 378.272 894.902 378.033H890.697C883.138 379.658 876.422 383.963 871.791 390.153C867.159 396.342 864.925 403.998 865.5 411.706L865.51 411.641ZM953.722 315.105V310.915C953.212 303.29 949.952 296.109 944.546 290.705C939.141 285.301 931.957 282.042 924.33 281.533H920.135C912.586 283.155 905.877 287.449 901.245 293.625C896.613 299.801 894.369 307.442 894.928 315.141V319.302C894.849 323.182 895.556 327.037 897.005 330.638C898.455 334.238 900.617 337.508 903.362 340.252C906.107 342.996 909.378 345.158 912.98 346.607C916.581 348.055 920.439 348.762 924.32 348.684H928.515C935.764 346.533 942.127 342.106 946.665 336.06C951.203 330.013 953.674 322.667 953.712 315.108L953.722 315.105ZM815.112 289.916C809.189 289.289 803.235 290.774 798.301 294.11C793.255 297.201 789.069 301.513 786.131 306.649C783.193 311.784 781.596 317.577 781.489 323.492C780.862 329.413 782.348 335.365 785.684 340.297C788.776 345.341 793.09 349.525 798.227 352.462C803.364 355.4 809.159 356.995 815.076 357.103C820.999 357.73 826.953 356.245 831.887 352.909C836.942 349.812 841.133 345.49 844.072 340.342C847.011 335.194 848.602 329.388 848.698 323.462C849.326 317.541 847.84 311.589 844.504 306.657C841.333 301.685 837.001 297.558 831.881 294.63C826.761 291.703 821.006 290.063 815.112 289.851V289.916ZM789.911 193.351C784.865 196.442 780.68 200.755 777.742 205.89C774.803 211.026 773.207 216.818 773.1 222.733C772.473 228.654 773.958 234.606 777.295 239.539C780.401 244.569 784.726 248.737 789.868 251.657C795.011 254.577 800.806 256.155 806.719 256.247C812.642 256.874 818.596 255.389 823.53 252.053L819.336 243.677L823.53 252.063C828.196 248.578 832.096 244.171 834.988 239.117C837.88 234.063 839.702 228.469 840.342 222.681C840.969 216.76 839.483 210.808 836.147 205.876C833.055 200.832 828.741 196.648 823.604 193.71C818.467 190.773 812.672 189.177 806.755 189.07C802.508 189.025 794.106 193.351 789.911 193.351ZM705.894 235.346C701.065 235.663 696.349 236.943 692.021 239.108C687.694 241.274 683.844 244.283 680.697 247.958C677.902 250.588 675.997 254.023 675.245 257.786C674.493 261.549 674.933 265.452 676.502 268.953C676.82 273.78 678.099 278.495 680.266 282.821C682.433 287.147 685.442 290.996 689.118 294.142C694.866 299.399 702.333 302.38 710.121 302.529C714.95 302.211 719.667 300.931 723.994 298.766C728.321 296.6 732.171 293.591 735.318 289.916C740.577 284.171 743.559 276.706 743.708 268.921C743.39 264.094 742.11 259.379 739.944 255.053C737.777 250.727 734.767 246.878 731.091 243.732C723.428 239.081 714.816 236.215 705.894 235.346ZM646.993 201.839C652.741 207.096 660.209 210.077 667.999 210.225C672.823 209.903 677.534 208.621 681.856 206.455C686.177 204.289 690.023 201.281 693.167 197.61C698.425 191.864 701.408 184.4 701.556 176.614C701.238 171.787 699.959 167.072 697.792 162.746C695.625 158.42 692.616 154.571 688.939 151.425C683.191 146.168 675.723 143.186 667.934 143.039C663.105 143.356 658.388 144.636 654.061 146.802C649.734 148.968 645.884 151.976 642.736 155.651C637.478 161.396 634.495 168.861 634.347 176.647C634.22 181.558 635.305 186.425 637.505 190.818C639.706 195.211 642.954 198.994 646.963 201.835L646.993 201.839ZM575.579 285.821H588.196C594.654 285.743 600.933 283.689 606.189 279.935C611.444 276.181 615.422 270.908 617.588 264.825L609.208 260.632L617.597 264.825V252.119C617.52 245.662 615.465 239.385 611.71 234.132C607.955 228.878 602.68 224.902 596.595 222.736H583.978C577.52 222.814 571.24 224.868 565.985 228.622C560.73 232.376 556.752 237.649 554.586 243.732V256.247C554.651 262.731 556.711 269.039 560.486 274.313C564.261 279.587 569.568 283.572 575.686 285.726L575.579 285.821ZM550.382 185.027C550.304 178.57 548.249 172.293 544.494 167.04C540.739 161.786 535.464 157.81 529.379 155.645H516.762C510.304 155.722 504.024 157.776 498.769 161.53C493.514 165.284 489.536 170.557 487.37 176.64V189.025C487.448 195.481 489.503 201.758 493.258 207.011C497.013 212.265 502.288 216.242 508.373 218.407H520.99C527.448 218.329 533.727 216.275 538.982 212.521C544.238 208.767 548.216 203.494 550.382 197.411V184.932V185.027ZM281.649 264.728C289.957 264.727 298.079 262.263 304.987 257.649C311.895 253.034 317.278 246.475 320.457 238.802C323.636 231.128 324.468 222.684 322.847 214.539C321.225 206.393 317.224 198.91 311.349 193.038C305.474 187.165 297.989 183.166 289.84 181.546C281.691 179.926 273.245 180.757 265.569 183.936C257.893 187.114 251.332 192.497 246.716 199.403C242.101 206.309 239.637 214.428 239.637 222.733C241.065 233.369 245.95 243.24 253.541 250.828C261.131 258.416 271.01 263.3 281.649 264.728ZM172.431 394.904C174.714 395.189 177.031 394.96 179.214 394.235C181.397 393.509 183.39 392.305 185.048 390.71C192.881 388.15 199.626 383.029 204.196 376.173C208.766 369.317 210.897 361.123 210.245 352.909C210.53 350.627 210.302 348.311 209.576 346.128C208.85 343.946 207.646 341.954 206.05 340.297L197.661 348.684L210.277 340.297C207 332.955 201.708 326.693 195.015 322.235C188.323 317.776 180.503 315.306 172.463 315.108C170.181 314.823 167.863 315.051 165.68 315.777C163.497 316.502 161.504 317.707 159.847 319.302C152.019 321.868 145.281 326.99 140.716 333.846C136.151 340.702 134.025 348.893 134.679 357.103C134.393 359.384 134.622 361.701 135.348 363.883C136.073 366.066 137.278 368.058 138.874 369.715C141.024 376.956 145.446 383.314 151.489 387.85C157.531 392.386 164.875 394.859 172.431 394.904ZM117.822 478.892C108.9 479.762 100.288 482.628 92.6246 487.279C84.9905 495.217 80.5061 505.66 80.0081 516.661C80.8777 525.58 83.7451 534.189 88.3974 541.849C96.3383 549.481 106.785 553.964 117.789 554.462C126.712 553.592 135.324 550.726 142.987 546.075C150.621 538.137 155.105 527.694 155.603 516.693C154.734 507.774 151.866 499.165 147.214 491.504L134.597 504.117L147.214 495.73C144.409 490.433 140.159 486.039 134.956 483.059C129.754 480.079 123.812 478.632 117.822 478.892ZM932.732 936.604C922.244 936.418 912.075 940.216 904.279 947.232C896.482 954.247 891.638 963.958 890.723 974.405C890.702 979.375 891.666 984.3 893.559 988.895C895.452 993.491 898.236 997.667 901.752 1001.18C905.267 1004.7 909.444 1007.48 914.042 1009.37C918.639 1011.26 923.566 1012.23 928.537 1012.21C939.676 1012.14 950.335 1007.66 958.178 999.753C966.022 991.846 970.412 981.155 970.386 970.019C969.48 960.726 965.095 952.117 958.11 945.918C951.125 939.718 942.054 936.386 932.716 936.587L932.732 936.604ZM1037.75 802.169C1035.47 801.884 1033.15 802.113 1030.97 802.838C1028.79 803.564 1026.79 804.768 1025.14 806.362C1017.3 808.923 1010.56 814.043 1005.99 820.9C1001.42 827.756 999.286 835.95 999.938 844.163C999.653 846.445 999.881 848.762 1000.61 850.944C1001.33 853.127 1002.54 855.119 1004.13 856.776C1006.69 864.607 1011.82 871.349 1018.68 875.918C1025.53 880.487 1033.73 882.616 1041.95 881.964C1044.23 882.25 1046.55 882.021 1048.73 881.296C1050.91 880.57 1052.91 879.366 1054.56 877.771C1062.4 875.211 1069.14 870.09 1073.71 863.234C1078.28 856.377 1080.41 848.184 1079.76 839.97C1080.05 837.688 1079.82 835.372 1079.09 833.189C1078.37 831.007 1077.16 829.015 1075.57 827.358C1072.99 819.509 1067.85 812.757 1060.97 808.191C1054.08 803.626 1045.86 801.514 1037.62 802.198L1037.75 802.169ZM1096.57 718.18C1105.49 717.311 1114.11 714.445 1121.77 709.794C1129.4 701.856 1133.89 691.412 1134.39 680.412C1133.51 671.491 1130.64 662.882 1125.98 655.223C1118.04 647.592 1107.59 643.109 1096.58 642.611C1087.66 643.48 1079.05 646.347 1071.39 650.997C1063.75 658.936 1059.27 669.379 1058.77 680.379C1059.64 689.299 1062.51 697.908 1067.16 705.568C1070.85 709.673 1075.39 712.926 1080.47 715.104C1085.54 717.282 1091.03 718.331 1096.55 718.18H1096.57ZM1058.76 487.275C1054.95 493.569 1053.46 501 1054.56 508.274C1055.1 515.153 1057.29 521.801 1060.94 527.652C1064.6 533.504 1069.62 538.386 1075.57 541.882C1080.5 545.217 1086.45 546.702 1092.38 546.075C1099.26 545.537 1105.9 543.347 1111.75 539.69C1117.6 536.033 1122.48 531.017 1125.98 525.07C1129.79 518.777 1131.27 511.348 1130.17 504.074C1129.64 497.195 1127.45 490.547 1123.79 484.696C1120.13 478.844 1115.12 473.963 1109.17 470.467C1102.87 466.658 1095.44 465.174 1088.16 466.273C1082.04 467.463 1076.25 469.953 1071.18 473.576C1066.11 477.198 1061.88 481.868 1058.77 487.269L1058.76 487.275ZM1025.14 386.514H1033.53C1038.26 386.998 1043.04 386.493 1047.57 385.031C1052.1 383.569 1056.27 381.183 1059.83 378.022C1063.38 374.862 1066.24 370.998 1068.23 366.674C1070.21 362.35 1071.27 357.662 1071.34 352.906V344.523C1071.83 339.783 1071.32 334.995 1069.85 330.462C1068.38 325.93 1065.99 321.752 1062.81 318.197C1059.64 314.641 1055.76 311.784 1051.43 309.808C1047.09 307.833 1042.39 306.782 1037.62 306.722H1029.24C1024.5 306.238 1019.72 306.743 1015.19 308.205C1010.67 309.666 1006.49 312.053 1002.94 315.213C999.38 318.374 996.521 322.238 994.538 326.562C992.556 330.886 991.495 335.574 991.422 340.33V348.716C992.54 357.678 996.353 366.089 1002.36 372.839C1008.36 379.588 1016.27 384.358 1025.04 386.517L1025.14 386.514ZM915.937 176.546C906.82 177.978 898.484 182.53 892.352 189.424C886.22 196.319 882.673 205.128 882.318 214.347V222.733C883.771 231.828 888.334 240.139 895.229 246.248C902.124 252.358 910.925 255.889 920.132 256.24H928.521L924.326 239.448L928.521 256.253C937.638 254.821 945.974 250.269 952.106 243.374C958.238 236.48 961.785 227.671 962.14 218.452V210.17C960.708 201.056 956.154 192.722 949.257 186.593C942.36 180.463 933.548 176.917 924.326 176.562L915.937 176.546ZM731.098 130.352C730.446 137.608 731.903 144.898 735.292 151.347C738.79 157.296 743.673 162.312 749.526 165.968C755.38 169.624 762.03 171.812 768.912 172.346C776.17 172.997 783.463 171.541 789.914 168.153L781.453 155.54L789.843 168.153C795.796 164.67 800.821 159.802 804.489 153.962C808.156 148.122 810.36 141.483 810.911 134.61C811.562 127.354 810.105 120.064 806.716 113.614C803.219 107.666 798.336 102.65 792.482 98.9941C786.629 95.3379 779.978 93.1497 773.097 92.6157C765.837 91.964 758.543 93.42 752.091 96.809C746.149 100.299 741.138 105.171 737.482 111.01C733.825 116.849 731.632 123.484 731.088 130.352H731.098ZM600.877 142.931C606.398 143.082 611.885 142.032 616.96 139.855C622.035 137.677 626.576 134.424 630.269 130.319L617.669 121.812L630.286 130.199C634.938 122.538 637.805 113.929 638.675 105.01C638.826 99.4914 637.775 94.0059 635.597 88.9329C633.419 83.8598 630.164 79.3202 626.058 75.628C618.382 71.0332 609.771 68.2216 600.861 67.4009C595.34 67.2501 589.853 68.2999 584.778 70.4775C579.703 72.6551 575.162 75.9087 571.469 80.0132C566.817 87.6735 563.949 96.2826 563.08 105.202C562.929 110.721 563.979 116.206 566.157 121.279C568.336 126.352 571.59 130.892 575.696 134.584C583.356 139.221 591.961 142.076 600.874 142.938L600.877 142.931ZM416.064 172.313C420.259 172.313 424.453 176.507 428.681 176.507C436.784 176.587 444.725 174.227 451.469 169.735C458.213 165.243 463.448 158.825 466.495 151.318C466.495 147.125 470.689 142.931 470.689 138.706C471.341 130.492 469.211 122.298 464.641 115.442C460.07 108.586 453.326 103.465 445.492 100.905C441.297 100.905 437.103 96.7114 432.875 96.7114C424.659 96.0595 416.462 98.1892 409.604 102.758C402.745 107.327 397.623 114.069 395.061 121.9C395.061 126.093 390.867 130.287 390.867 134.512C391.058 142.555 393.527 150.379 397.987 157.075C402.447 163.772 408.715 169.067 416.064 172.346V172.313ZM176.626 273.114C184.937 273.126 193.065 270.674 199.981 266.067C206.898 261.46 212.292 254.905 215.481 247.233C218.67 239.561 219.51 231.115 217.896 222.965C216.282 214.815 212.286 207.326 206.414 201.447C200.541 195.568 193.056 191.562 184.906 189.937C176.755 188.312 168.305 189.14 160.626 192.316C152.946 195.493 146.382 200.875 141.763 207.783C137.144 214.69 134.679 222.811 134.679 231.12C135.418 242.003 140.073 252.252 147.784 259.971C155.494 267.69 165.739 272.359 176.626 273.114ZM75.7971 441.091C78.0798 441.376 80.3974 441.148 82.5803 440.422C84.7633 439.697 86.7563 438.493 88.4137 436.898C96.2475 434.337 102.992 429.217 107.562 422.36C112.133 415.504 114.263 407.31 113.611 399.097C113.896 396.815 113.668 394.498 112.942 392.316C112.216 390.134 111.012 388.141 109.416 386.485L101.027 390.678L113.644 386.485C111.082 378.653 105.96 371.911 99.1012 367.342C92.2425 362.774 84.0458 360.644 75.8297 361.296C73.547 361.011 71.2295 361.239 69.0465 361.965C66.8636 362.69 64.8706 363.894 63.2131 365.489C55.6656 367.113 48.9593 371.408 44.3291 377.584C39.6989 383.759 37.4568 391.399 38.0157 399.097C37.7303 401.379 37.9588 403.696 38.6846 405.878C39.4104 408.06 40.615 410.052 42.2104 411.709C43.6253 419.698 47.7255 426.964 53.8328 432.307C59.9401 437.65 67.6887 440.749 75.7971 441.091ZM42.2104 634.257C51.1328 633.388 59.7448 630.521 67.4078 625.871C75.0419 617.932 79.5263 607.489 80.0243 596.489C79.1547 587.569 76.2873 578.96 71.635 571.3C63.6941 563.668 53.247 559.185 42.2429 558.687C33.3206 559.557 24.7085 562.423 17.0456 567.074C11.6514 568.524 6.9687 571.886 3.87032 576.532C0.771948 581.178 -0.530748 586.792 0.205024 592.328C1.07466 601.247 3.94201 609.856 8.59438 617.517C12.2811 622.965 17.3134 627.37 23.2036 630.303C29.0938 633.236 35.6388 634.598 42.2104 634.257ZM1037.61 928.184C1029.3 928.21 1021.18 930.698 1014.29 935.335C1007.39 939.971 1002.03 946.548 998.873 954.233C995.718 961.918 994.914 970.366 996.562 978.508C998.21 986.65 1002.24 994.12 1008.13 999.974C1014.03 1005.83 1021.53 1009.8 1029.68 1011.39C1037.84 1012.99 1046.29 1012.12 1053.95 1008.92C1061.62 1005.71 1068.16 1000.3 1072.75 993.38C1077.34 986.456 1079.78 978.326 1079.74 970.019C1078.99 959.123 1074.31 948.87 1066.55 941.174C1058.8 933.477 1048.51 928.862 1037.61 928.188V928.184ZM1134.21 756.014C1131.93 755.729 1129.61 755.957 1127.43 756.683C1125.24 757.408 1123.25 758.612 1121.59 760.207C1113.76 762.768 1107.01 767.888 1102.44 774.744C1097.87 781.601 1095.74 789.795 1096.4 798.008C1096.11 800.29 1096.34 802.607 1097.07 804.789C1097.79 806.971 1099 808.964 1100.59 810.621C1103.15 818.452 1108.27 825.194 1115.13 829.763C1121.99 834.332 1130.19 836.461 1138.4 835.809C1140.69 836.095 1143 835.866 1145.19 835.14C1147.37 834.415 1149.36 833.211 1151.02 831.616C1158.86 829.056 1165.6 823.936 1170.17 817.079C1174.74 810.223 1176.87 802.029 1176.22 793.815C1176.52 791.533 1176.3 789.214 1175.59 787.027C1174.87 784.839 1173.68 782.839 1172.09 781.174C1168.81 773.847 1163.53 767.597 1156.85 763.145C1150.17 758.693 1142.37 756.221 1134.34 756.014H1134.21ZM1205.61 579.65C1197.67 572.019 1187.22 567.536 1176.22 567.038C1167.3 567.907 1158.68 570.774 1151.02 575.425C1143.39 583.363 1138.9 593.806 1138.4 604.807C1139.27 613.726 1142.14 622.335 1146.79 629.995C1154.73 637.627 1165.18 642.11 1176.19 642.608C1185.11 641.738 1193.72 638.872 1201.38 634.221C1209.02 626.283 1213.5 615.84 1214 604.839C1213.2 595.888 1210.38 587.233 1205.77 579.52L1205.61 579.65ZM1121.59 445.219C1128.05 448.608 1135.34 450.064 1142.6 449.413C1149.61 449.414 1156.48 447.445 1162.42 443.732C1168.37 440.018 1173.15 434.709 1176.22 428.411C1179.61 421.962 1181.06 414.673 1180.41 407.418C1180.41 400.411 1178.44 393.544 1174.73 387.601C1171.01 381.658 1165.7 376.878 1159.4 373.807C1152.95 370.421 1145.66 368.966 1138.4 369.617C1131.39 369.616 1124.52 371.585 1118.58 375.298C1112.63 379.012 1107.85 384.321 1104.78 390.619C1101.39 397.068 1099.94 404.357 1100.59 411.612C1100.22 418.718 1102.05 425.766 1105.84 431.792C1109.62 437.819 1115.18 442.531 1121.74 445.284L1121.59 445.219ZM1037.61 281.533H1046C1055.88 281.953 1065.58 278.781 1073.31 272.602C1081.03 266.423 1086.25 257.657 1088.01 247.925V239.539C1088.43 229.659 1085.25 219.961 1079.07 212.24C1072.89 204.519 1064.12 199.299 1054.38 197.544H1045.99C1036.11 197.125 1026.41 200.298 1018.69 206.477C1010.97 212.655 1005.74 221.421 1003.99 231.152V239.539C1003.57 249.418 1006.74 259.116 1012.92 266.836C1019.1 274.557 1027.87 279.778 1037.61 281.533ZM894.804 151.357H903.193L899.126 134.616L903.32 151.422C913.055 149.667 921.825 144.446 928.006 136.725C934.186 129.005 937.36 119.307 936.94 109.428V100.97C935.176 91.2447 929.949 82.487 922.226 76.3161C914.503 70.1451 904.806 66.9782 894.928 67.4009H886.538C876.803 69.1559 868.034 74.3769 861.853 82.0975C855.672 89.818 852.499 99.5156 852.919 109.395V117.782C854.682 127.507 859.907 136.266 867.63 142.438C875.352 148.61 885.049 151.779 894.928 151.357H894.804ZM709.994 84.1414C717.253 84.7925 724.545 83.3365 730.997 79.9481L722.705 67.4009L731.095 80.0132C737.044 76.5168 742.061 71.6351 745.718 65.7837C749.375 59.9322 751.563 53.2842 752.097 46.4054C752.752 39.1438 751.295 31.8478 747.903 25.3936C744.419 18.2038 739.077 12.0756 732.428 7.6434C725.78 3.21124 718.067 0.636336 710.089 0.185342C702.829 -0.466384 695.535 0.98959 689.083 4.37859C683.133 7.87499 678.116 12.7567 674.459 18.6081C670.802 24.4596 668.614 31.1076 668.08 37.9864C667.429 45.2425 668.885 52.5325 672.275 58.9819C676.19 65.826 681.645 71.6651 688.208 76.037C694.771 80.4089 702.263 83.1936 710.089 84.1707L709.994 84.1414ZM512.558 79.9481C518.128 80.5388 523.756 79.6892 528.902 77.4807C534.049 75.2722 538.542 71.779 541.95 67.3359L529.333 58.9494L546.145 67.3359C549.331 64.0264 551.738 60.0477 553.19 55.69C554.642 51.3322 555.102 46.7054 554.537 42.1471C555.128 36.5794 554.278 30.9533 552.069 25.8083C549.86 20.6633 546.365 16.172 541.921 12.7651C538.239 8.68385 533.718 5.44663 528.668 3.27531C523.618 1.104 518.158 0.0499228 512.662 0.185342C507.093 -0.405749 501.465 0.443372 496.318 2.65128C491.171 4.8592 486.678 8.35186 483.27 12.7944C480.084 16.1041 477.678 20.0829 476.227 24.4407C474.775 28.7984 474.316 33.4251 474.881 37.9831C474.291 43.5501 475.142 49.175 477.352 54.3188C479.562 59.4626 483.056 63.9527 487.5 67.3586C489.963 71.7339 493.678 75.2729 498.168 77.5205C502.658 79.7681 507.718 80.6215 512.698 79.9709L512.558 79.9481ZM315.232 142.938C319.427 142.938 323.622 147.131 327.849 147.131C336.081 147.775 344.291 145.627 351.152 141.033C358.013 136.439 363.125 129.668 365.663 121.812L353.046 113.426L365.663 117.619C365.663 113.426 369.857 109.233 369.857 105.007C370.465 96.8249 368.313 88.6754 363.746 81.8586C359.179 75.0419 352.46 69.9508 344.66 67.3977H327.849C319.633 66.7458 311.436 68.8756 304.577 73.4443C297.719 78.0131 292.596 84.7553 290.035 92.5864C290.035 96.7797 285.84 100.973 285.84 105.199C286.863 113.559 290.137 121.486 295.314 128.132C300.49 134.778 307.375 139.897 315.232 142.938Z" fill="#B0ADAB"/>
<path d="M332.076 529.273C332.394 534.1 333.674 538.815 335.841 543.141C338.007 547.466 341.017 551.316 344.693 554.462C346.35 556.057 348.343 557.261 350.526 557.986C352.709 558.712 355.027 558.94 357.309 558.655C362.138 558.337 366.855 557.058 371.182 554.892C375.509 552.726 379.359 549.717 382.507 546.043C384.102 544.386 385.307 542.394 386.033 540.211C386.758 538.029 386.987 535.712 386.701 533.43C386.384 528.603 385.104 523.888 382.937 519.563C380.771 515.237 377.761 511.388 374.085 508.242C372.425 506.653 370.43 505.454 368.247 504.735C366.065 504.015 363.748 503.791 361.468 504.081C356.639 504.399 351.923 505.678 347.596 507.844C343.269 510.01 339.418 513.019 336.271 516.693C334.68 518.346 333.478 520.333 332.752 522.51C332.027 524.686 331.796 526.996 332.076 529.273ZM323.687 613.278V617.471C323.22 623.576 325.153 629.623 329.075 634.326C332.997 639.029 338.598 642.019 344.69 642.66H348.884C354.991 643.126 361.04 641.194 365.745 637.274C370.45 633.353 373.44 627.754 374.082 621.664V617.455C374.548 611.349 372.615 605.302 368.692 600.599C364.77 595.895 359.168 592.906 353.076 592.266H348.884C342.774 591.8 336.724 593.735 332.018 597.658C327.313 601.582 324.324 607.186 323.687 613.278ZM370.017 730.842H374.212C380.025 729.593 385.251 726.433 389.058 721.868C392.865 717.302 395.032 711.594 395.214 705.653V701.437C393.965 695.626 390.805 690.401 386.238 686.596C381.67 682.79 375.96 680.623 370.017 680.441H365.822C360.01 681.69 354.783 684.85 350.976 689.415C347.169 693.981 345.002 699.689 344.82 705.63V709.83C346.069 715.641 349.23 720.866 353.797 724.671C358.364 728.477 364.074 730.643 370.017 730.825V730.842ZM420.415 806.411C422.698 806.697 425.015 806.468 427.198 805.743C429.381 805.017 431.374 803.813 433.032 802.218C437.389 799.735 440.912 796.018 443.158 791.535C445.403 787.052 446.27 782.004 445.648 777.029C445.934 774.747 445.705 772.431 444.979 770.248C444.254 768.066 443.049 766.074 441.454 764.417C438.97 760.061 435.251 756.539 430.766 754.294C426.282 752.05 421.233 751.183 416.256 751.805C413.974 751.519 411.656 751.748 409.473 752.473C407.29 753.199 405.297 754.403 403.64 755.998C399.283 758.481 395.759 762.198 393.514 766.681C391.268 771.164 390.401 776.212 391.023 781.187C390.738 783.469 390.966 785.785 391.692 787.968C392.418 790.15 393.622 792.142 395.218 793.799C398.346 797.463 402.173 800.468 406.475 802.638C410.777 804.808 415.468 806.101 420.275 806.44L420.415 806.411ZM496.01 856.792C503.799 856.644 511.266 853.662 517.013 848.406C520.349 843.473 521.835 837.521 521.208 831.6C521.06 823.813 518.077 816.347 512.818 810.601C507.884 807.266 501.93 805.781 496.007 806.408C488.219 806.556 480.752 809.538 475.004 814.794C471.668 819.727 470.183 825.679 470.81 831.6C470.958 839.386 473.941 846.85 479.199 852.596C483.267 856.825 487.491 856.825 495.88 856.825L496.01 856.792ZM571.606 881.984H579.995C585.354 881.849 590.566 880.199 595.025 877.224C599.485 874.25 603.01 870.073 605.192 865.178V856.825C605.058 851.467 603.407 846.257 600.432 841.799C597.456 837.341 593.278 833.817 588.381 831.636H579.992C574.633 831.771 569.421 833.421 564.961 836.395C560.502 839.369 556.977 843.546 554.795 848.441V856.828C554.622 862.236 556.135 867.565 559.123 872.077C562.111 876.59 566.427 880.063 571.476 882.017L571.606 881.984ZM248.218 583.815C252.413 588.008 256.608 588.008 265.03 588.008C271.017 588.271 276.956 586.831 282.158 583.857C287.361 580.882 291.613 576.494 294.422 571.202V558.593C294.685 552.608 293.245 546.671 290.269 541.47C287.294 536.27 282.905 532.019 277.611 529.211C272.676 525.876 266.722 524.391 260.799 525.018C254.812 524.755 248.873 526.195 243.671 529.169C238.468 532.143 234.216 536.531 231.407 541.823C228.072 546.755 226.586 552.706 227.213 558.626C231.248 567.084 235.537 579.654 248.056 583.88L248.218 583.815ZM164.042 642.647C168.976 645.982 174.93 647.467 180.853 646.84C186.84 647.103 192.78 645.664 197.982 642.689C203.184 639.715 207.436 635.327 210.245 630.035C213.581 625.102 215.067 619.15 214.44 613.229C214.703 607.244 213.263 601.307 210.287 596.106C207.312 590.906 202.923 586.655 197.629 583.847C192.694 580.512 186.74 579.027 180.817 579.654C174.83 579.391 168.891 580.83 163.689 583.805C158.486 586.779 154.234 591.167 151.425 596.459C148.086 601.395 146.6 607.353 147.231 613.278C147.87 619.065 149.692 624.66 152.584 629.714C155.476 634.768 159.376 639.175 164.042 642.66V642.647ZM269.062 709.862C276.575 709.624 283.832 707.078 289.847 702.571C295.862 698.064 300.343 691.815 302.681 684.674V680.445C302.442 672.934 299.895 665.679 295.387 659.666C290.879 653.653 284.628 649.174 277.484 646.837H273.253C265.74 647.077 258.483 649.623 252.469 654.13C246.454 658.638 241.974 664.887 239.637 672.029V676.222C239.876 683.733 242.423 690.988 246.931 697.001C251.439 703.014 257.69 707.493 264.834 709.83H269.029L269.062 709.862ZM218.664 726.665H214.433C206.92 726.905 199.664 729.453 193.65 733.96C187.636 738.468 183.157 744.718 180.821 751.86V756.053C181.059 763.564 183.606 770.819 188.114 776.832C192.622 782.845 198.874 787.324 206.018 789.661H210.248C217.762 789.422 225.019 786.876 231.034 782.37C237.049 777.863 241.53 771.614 243.868 764.472V760.146C244.426 752.448 242.184 744.808 237.554 738.633C232.924 732.457 226.218 728.162 218.67 726.538L218.664 726.665ZM348.884 789.658V785.429C344.69 764.433 332.073 756.047 319.492 756.047H315.262C307.714 757.671 301.008 761.966 296.378 768.141C291.748 774.317 289.506 781.957 290.064 789.655V793.848C291.689 801.393 295.985 808.097 302.163 812.725C308.341 817.354 315.984 819.595 323.684 819.037H327.865C340.482 819.037 348.868 802.231 348.868 789.655L348.884 789.658ZM289.983 852.618H285.84C278.295 854.242 271.591 858.535 266.961 864.708C262.331 870.881 260.087 878.518 260.643 886.213V890.406C262.267 897.951 266.564 904.655 272.742 909.284C278.92 913.912 286.562 916.154 294.262 915.595H298.457C306.005 913.971 312.712 909.675 317.342 903.499C321.972 897.323 324.214 889.682 323.654 881.984V877.791C322.029 870.234 317.722 863.521 311.531 858.891C305.339 854.261 297.681 852.027 289.97 852.602L289.983 852.618ZM399.198 907.192C405.121 907.819 411.075 906.334 416.009 902.999C421.055 899.908 425.24 895.595 428.178 890.46C431.117 885.325 432.713 879.532 432.82 873.617C433.447 867.696 431.962 861.744 428.625 856.812C425.533 851.767 421.219 847.583 416.082 844.646C410.945 841.709 405.15 840.113 399.233 840.006C393.31 839.379 387.356 840.864 382.422 844.199C377.376 847.29 373.191 851.603 370.253 856.738C367.315 861.874 365.718 867.666 365.611 873.581C364.984 879.502 366.469 885.454 369.806 890.387C372.622 895.695 376.889 900.093 382.111 903.068C387.332 906.044 393.292 907.474 399.295 907.192H399.198ZM407.587 1007.99C413.53 1008.63 419.509 1007.14 424.46 1003.79C429.506 1000.7 433.691 996.39 436.63 991.254C439.568 986.119 441.164 980.326 441.271 974.411C441.899 968.49 440.413 962.538 437.077 957.606C433.984 952.561 429.67 948.378 424.533 945.44C419.396 942.503 413.602 940.907 407.685 940.8C401.762 940.173 395.807 941.658 390.873 944.993C385.827 948.085 381.642 952.397 378.704 957.532C375.766 962.668 374.169 968.46 374.062 974.375C373.435 980.296 374.92 986.249 378.257 991.181C381.747 995.849 386.16 999.75 391.222 1002.64C396.284 1005.53 401.886 1007.35 407.681 1007.99H407.587ZM508.51 961.792C513.339 961.475 518.055 960.195 522.382 958.029C526.709 955.863 530.56 952.855 533.707 949.18C538.965 943.435 541.948 935.97 542.097 928.185C541.779 923.357 540.499 918.642 538.332 914.317C536.166 909.991 533.156 906.142 529.48 902.996C523.733 897.739 516.266 894.758 508.477 894.609C503.649 894.927 498.932 896.206 494.605 898.372C490.278 900.538 486.427 903.547 483.28 907.222C478.021 912.968 475.038 920.434 474.891 928.22C475.208 933.047 476.488 937.762 478.655 942.088C480.821 946.414 483.831 950.263 487.507 953.409C493.252 958.663 500.715 961.645 508.5 961.796L508.51 961.792ZM567.33 995.4C561.582 990.144 554.115 987.162 546.327 987.014C541.498 987.331 536.782 988.611 532.455 990.777C528.127 992.943 524.277 995.951 521.13 999.626C515.871 1005.37 512.889 1012.84 512.74 1020.62C513.058 1025.45 514.338 1030.16 516.505 1034.49C518.671 1038.81 521.681 1042.66 525.357 1045.81C531.104 1051.07 538.571 1054.05 546.36 1054.2C551.188 1053.88 555.905 1052.6 560.232 1050.43C564.559 1048.27 568.41 1045.26 571.557 1041.58C576.815 1035.84 579.798 1028.37 579.946 1020.59C580.075 1015.67 578.988 1010.79 576.783 1006.4C574.577 1002 571.32 998.208 567.3 995.368L567.33 995.4ZM638.73 911.412H626.179C619.721 911.489 613.441 913.543 608.186 917.297C602.931 921.051 598.953 926.324 596.787 932.407V945.019C596.865 951.476 598.919 957.753 602.674 963.006C606.429 968.259 611.705 972.236 617.79 974.401H630.406C636.865 974.323 643.145 972.269 648.4 968.515C653.655 964.76 657.633 959.486 659.798 953.403V940.79C658.602 934.66 656.098 928.859 652.456 923.783C648.815 918.707 644.122 914.475 638.698 911.376L638.73 911.412ZM684.94 1045.84H697.544C704.003 1045.76 710.282 1043.71 715.537 1039.96C720.793 1036.2 724.771 1030.93 726.936 1024.84V1012.23C726.858 1005.78 724.803 999.498 721.048 994.245C717.293 988.992 712.018 985.015 705.933 982.85H693.414C686.956 982.927 680.676 984.981 675.421 988.735C670.166 992.489 666.188 997.762 664.022 1003.85V1016.46C664.103 1022.89 666.145 1029.14 669.875 1034.38C673.605 1039.62 678.847 1043.6 684.898 1045.78L684.94 1045.84ZM155.493 709.83C158.883 703.38 160.339 696.091 159.688 688.834C159.154 681.956 156.965 675.308 153.309 669.456C149.652 663.605 144.635 658.723 138.685 655.227C132.233 651.838 124.941 650.382 117.682 651.033C110.801 651.567 104.15 653.754 98.2956 657.41C92.4415 661.065 87.5577 666.081 84.0598 672.029C80.2494 678.322 78.7652 685.751 79.8651 693.024C80.399 699.903 82.5874 706.551 86.2442 712.403C89.901 718.254 94.9178 723.136 100.868 726.632C107.164 730.443 114.596 731.928 121.874 730.829C128.755 730.295 135.406 728.106 141.259 724.45C147.113 720.794 151.996 715.778 155.493 709.83ZM189.112 810.624H180.85C176.116 810.139 171.333 810.643 166.804 812.104C162.276 813.565 158.1 815.951 154.544 819.112C150.987 822.272 148.126 826.137 146.144 830.461C144.161 834.786 143.099 839.475 143.026 844.232V852.618C142.542 857.347 143.046 862.125 144.507 866.648C145.967 871.172 148.352 875.343 151.51 878.897C154.667 882.451 158.529 885.311 162.851 887.294C167.172 889.277 171.858 890.342 176.613 890.419H185.005C189.731 890.889 194.503 890.374 199.019 888.906C203.535 887.438 207.698 885.049 211.243 881.89C214.788 878.731 217.639 874.871 219.615 870.555C221.592 866.238 222.651 861.558 222.725 856.812V848.425C220.886 839.769 216.834 831.737 210.965 825.112C205.096 818.487 197.609 813.496 189.236 810.624H189.112ZM298.327 1020.6C307.444 1019.16 315.78 1014.61 321.912 1007.72C328.044 1000.82 331.59 992.013 331.946 982.794V974.408C330.514 965.294 325.96 956.961 319.063 950.831C312.166 944.701 303.354 941.156 294.132 940.8H285.84C276.105 942.555 267.336 947.776 261.155 955.497C254.974 963.217 251.801 972.915 252.221 982.794V991.181C254.938 1000.06 260.55 1007.78 268.162 1013.11C275.775 1018.43 284.951 1021.06 294.23 1020.57H298.424L298.327 1020.6ZM483.14 1066.79C483.792 1059.53 482.336 1052.24 478.945 1045.79C475.448 1039.84 470.564 1034.83 464.711 1031.17C458.858 1027.52 452.207 1025.33 445.326 1024.8C438.106 1024.18 430.861 1025.65 424.45 1029.02C418.5 1032.52 413.484 1037.4 409.827 1043.25C406.17 1049.11 403.982 1055.75 403.448 1062.63C402.796 1069.89 404.253 1077.18 407.642 1083.63C411.14 1089.58 416.023 1094.59 421.877 1098.25C427.73 1101.9 434.38 1104.09 441.262 1104.62C448.52 1105.27 455.813 1103.82 462.264 1100.43C468.573 1097.35 473.889 1092.56 477.603 1086.61C481.317 1080.66 483.28 1073.78 483.267 1066.76L483.14 1066.79ZM613.361 1054.18C607.84 1054.03 602.353 1055.08 597.278 1057.25C592.203 1059.43 587.662 1062.68 583.969 1066.79C580.783 1070.1 578.377 1074.08 576.925 1078.44C575.474 1082.79 575.014 1087.42 575.579 1091.98C575.428 1097.5 576.478 1102.98 578.657 1108.06C580.835 1113.13 584.09 1117.67 588.196 1121.36C595.859 1126.01 604.471 1128.88 613.393 1129.75C618.914 1129.9 624.401 1128.85 629.476 1126.67C634.551 1124.49 639.092 1121.24 642.785 1117.13C647.438 1109.47 650.305 1100.87 651.174 1091.95C651.325 1086.43 650.275 1080.94 648.097 1075.87C645.918 1070.8 642.664 1066.26 638.558 1062.56C630.895 1057.91 622.283 1055.05 613.361 1054.18ZM793.969 1024.8C789.775 1024.8 785.58 1020.6 781.353 1020.6C773.137 1019.95 764.94 1022.08 758.081 1026.65C751.222 1031.22 746.1 1037.96 743.539 1045.79C743.539 1049.98 739.344 1054.18 739.344 1058.4C738.691 1066.62 740.822 1074.81 745.392 1081.67C749.962 1088.52 756.707 1093.64 764.541 1096.2C768.736 1096.2 772.931 1100.4 777.158 1100.4C785.374 1101.05 793.571 1098.92 800.43 1094.35C807.289 1089.78 812.411 1083.04 814.972 1075.21C814.972 1071.02 819.167 1066.82 819.167 1062.6C823.521 1045.79 810.904 1033.18 794.109 1024.8H793.969ZM92.6379 751.824C86.1863 748.436 78.8938 746.98 71.6352 747.631C64.6252 747.63 57.756 749.598 51.8111 753.312C45.8662 757.025 41.0849 762.334 38.0127 768.633C34.6249 775.082 33.1696 782.37 33.8213 789.625C33.8209 796.634 35.791 803.501 39.5069 809.444C43.2228 815.387 48.5348 820.166 54.837 823.236C61.2879 826.623 68.5791 828.078 75.8364 827.426C82.8464 827.427 89.7156 825.459 95.6605 821.745C101.605 818.032 106.387 812.723 109.459 806.424C112.847 799.975 114.302 792.687 113.65 785.432C113.115 778.552 110.925 771.904 107.267 766.052C103.608 760.201 98.5896 755.319 92.6379 751.824ZM176.623 919.801H168.298C158.415 919.381 148.714 922.554 140.991 928.732C133.268 934.911 128.045 943.678 126.29 953.409V961.796C125.869 971.675 129.043 981.373 135.224 989.093C141.405 996.814 150.174 1002.03 159.909 1003.79H168.298C178.181 1004.21 187.882 1001.04 195.605 994.859C203.329 988.68 208.551 979.914 210.307 970.182V961.796C210.245 936.607 197.625 919.801 176.623 919.801ZM319.427 1045.78H311.07C301.335 1047.54 292.566 1052.76 286.385 1060.48C280.204 1068.2 277.03 1077.9 277.451 1087.78V1096.24C279.209 1105.97 284.432 1114.73 292.155 1120.91C299.878 1127.09 309.578 1130.26 319.46 1129.84H327.849C337.584 1128.08 346.353 1122.86 352.534 1115.14C358.715 1107.42 361.889 1097.72 361.468 1087.84V1079.45C359.151 1069.99 353.778 1061.57 346.182 1055.48C338.587 1049.39 329.193 1045.98 319.46 1045.77L319.427 1045.78ZM504.244 1113C496.984 1112.35 489.69 1113.8 483.238 1117.19C477.288 1120.69 472.271 1125.57 468.614 1131.42C464.957 1137.27 462.769 1143.92 462.235 1150.8C461.584 1158.06 463.04 1165.35 466.43 1171.8C469.927 1177.74 474.811 1182.76 480.664 1186.41C486.517 1190.07 493.168 1192.26 500.049 1192.79C507.308 1193.44 514.6 1191.99 521.052 1188.6C527.002 1185.1 532.018 1180.22 535.675 1174.37C539.332 1168.52 541.52 1161.87 542.054 1154.99C542.706 1147.73 541.25 1140.44 537.86 1133.99C534.369 1128.04 529.492 1123.02 523.645 1119.36C517.797 1115.7 511.151 1113.51 504.273 1112.96L504.244 1113ZM697.475 1117.19C691.906 1116.6 686.278 1117.45 681.131 1119.66C675.984 1121.87 671.491 1125.36 668.083 1129.81C664.898 1133.11 662.492 1137.09 661.04 1141.45C659.589 1145.81 659.129 1150.44 659.694 1154.99C659.103 1160.56 659.953 1166.19 662.162 1171.33C664.371 1176.48 667.866 1180.97 672.311 1184.38C675.621 1187.56 679.602 1189.97 683.961 1191.42C688.32 1192.87 692.948 1193.33 697.508 1192.76C703.078 1193.35 708.706 1192.5 713.852 1190.3C718.999 1188.09 723.492 1184.59 726.9 1180.15C730.086 1176.84 732.492 1172.86 733.943 1168.5C735.395 1164.15 735.854 1159.52 735.289 1154.96C735.88 1149.39 735.03 1143.77 732.821 1138.62C730.612 1133.48 727.117 1128.99 722.673 1125.58C715.676 1119.63 706.643 1116.62 697.472 1117.18L697.475 1117.19ZM899.194 1054.2C895 1054.2 890.805 1050.01 886.578 1050.01C878.361 1049.36 870.164 1051.49 863.306 1056.06C856.447 1060.62 851.325 1067.37 848.764 1075.2C848.764 1079.39 844.569 1083.59 844.569 1087.81C843.917 1096.02 846.047 1104.22 850.618 1111.07C855.188 1117.93 861.933 1123.05 869.766 1125.61C873.961 1125.61 878.156 1129.81 882.383 1129.81C890.599 1130.46 898.796 1128.33 905.655 1123.76C912.514 1119.19 917.636 1112.45 920.197 1104.62C920.197 1100.42 924.392 1096.23 924.392 1092C925.047 1083.78 922.911 1075.57 918.328 1068.71C913.744 1061.84 906.981 1056.72 899.129 1054.17L899.194 1054.2Z" fill="#B0ADAB"/>
</svg>
